<svg width="256" height="230" viewBox="0 0 256 230" fill="none" xmlns="http://www.w3.org/2000/svg">
<ellipse cx="128" cy="115" rx="128" ry="115" fill="#146C70"/>
<path d="M58.4796 124.598C58.9298 125.432 59.2273 126.271 59.3722 127.114C59.5236 127.927 59.4476 128.771 59.1443 129.644C58.8475 130.488 58.2861 131.375 57.46 132.304C56.634 133.233 55.4669 134.207 53.959 135.226C52.451 136.244 51.1372 136.946 50.0176 137.331C48.8979 137.716 47.927 137.864 47.105 137.776C46.2895 137.658 45.5872 137.34 44.998 136.822C44.4153 136.275 43.8989 135.584 43.4487 134.75L36.1816 121.278C35.9957 120.933 35.9284 120.645 35.9798 120.412C36.0377 120.15 36.2206 119.915 36.5287 119.707L40.3472 117.128C40.6553 116.92 40.9183 116.853 41.1361 116.929C41.3603 116.976 41.5654 117.171 41.7514 117.516L48.4458 129.927C48.6416 130.289 48.9296 130.516 49.3098 130.605C49.6802 130.677 50.287 130.428 51.1302 129.859C51.9896 129.278 52.4772 128.788 52.5932 128.388C52.6994 127.969 52.6546 127.579 52.4589 127.216L45.7644 114.806C45.5785 114.461 45.5112 114.172 45.5626 113.939C45.6205 113.677 45.8034 113.443 46.1115 113.234L49.8085 110.737C50.1165 110.529 50.3795 110.463 50.5972 110.539C50.8215 110.585 51.0266 110.781 51.2125 111.126L58.4796 124.598ZM39.6498 120.941L45.7717 132.29C46.359 133.378 47.1709 134.043 48.2076 134.283C49.2508 134.495 50.7209 133.96 52.618 132.678C54.5151 131.397 55.6231 130.191 55.942 129.059C56.2511 127.91 56.112 126.791 55.5248 125.702L49.4028 114.353L49.1597 114.517L55.2815 125.866C55.8296 126.883 55.9507 127.927 55.6446 129C55.3288 130.055 54.271 131.19 52.4712 132.406C50.6714 133.622 49.2808 134.14 48.2994 133.961C47.3245 133.753 46.563 133.141 46.0149 132.125L39.893 120.776L39.6498 120.941Z" fill="white"/>
<path d="M82.6788 119.388L76.2043 122.159C73.993 123.105 72.1787 123.314 70.7614 122.786C69.3618 122.25 68.3101 120.953 67.6066 118.895L64.4508 109.66C63.7473 107.602 63.7571 105.85 64.4802 104.406C65.2143 102.935 66.6871 101.726 68.8983 100.78L75.3729 98.0096C75.7089 97.8657 75.9783 97.8526 76.1806 97.9702C76.394 98.0604 76.5649 98.2936 76.6934 98.6698L77.9212 102.263C78.0498 102.639 78.0648 102.95 77.9665 103.196C77.8791 103.415 77.6674 103.596 77.3312 103.74L71.9977 106.022C71.4493 106.257 71.0864 106.56 70.909 106.931C70.7248 107.282 70.7173 107.705 70.8864 108.2L73.3015 115.267C73.4706 115.761 73.7284 116.071 74.0749 116.195C74.4147 116.299 74.8588 116.234 75.4072 115.999L80.7408 113.717C81.0768 113.573 81.3461 113.56 81.5485 113.678C81.7619 113.768 81.9327 114.001 82.0613 114.377L83.2688 117.91C83.3974 118.287 83.4124 118.598 83.3141 118.844C83.2267 119.063 83.015 119.244 82.6788 119.388ZM80.2047 117.043L75.7734 118.94C74.1812 119.621 73.0285 119.808 72.3151 119.5C71.6018 119.193 71.0253 118.396 70.5856 117.109L67.7443 108.795C67.2979 107.489 67.2575 106.451 67.6232 105.682C67.9822 104.893 68.94 104.166 70.4968 103.5L74.9281 101.603L74.8267 101.306L70.3953 103.203C68.6971 103.929 67.6664 104.711 67.3033 105.547C66.9401 106.383 66.9987 107.504 67.479 108.909L70.3202 117.223C70.787 118.589 71.396 119.451 72.1474 119.81C72.9164 120.162 74.1589 119.971 75.8748 119.237L80.3062 117.34L80.2047 117.043Z" fill="white"/>
<path d="M95.3995 112.149L95.6787 112.091L94.2937 103.81L105.017 101.564L106.402 109.845L106.681 109.786L103.858 92.9131L103.579 92.9716L104.964 101.252L94.2414 103.498L92.8564 95.2173L92.5771 95.2758L95.3995 112.149ZM98.1876 114.476L93.8593 115.382C93.5056 115.456 93.231 115.428 93.0357 115.296C92.8553 115.14 92.7321 114.864 92.6659 114.468L89.2791 94.2201C89.2129 93.8243 89.2403 93.5275 89.3614 93.3297C89.4976 93.1071 89.7425 92.9588 90.0962 92.8847L94.4245 91.9782C94.7782 91.9041 95.0452 91.9452 95.2255 92.1015C95.4209 92.233 95.5517 92.4967 95.6179 92.8925L96.7521 99.6731L101.415 98.6964L100.281 91.9159C100.215 91.5201 100.242 91.2232 100.364 91.0254C100.5 90.8028 100.745 90.6545 101.098 90.5804L105.427 89.6739C105.78 89.5998 106.047 89.6409 106.228 89.7973C106.423 89.9288 106.554 90.1925 106.62 90.5883L110.007 110.836C110.073 111.232 110.038 111.541 109.902 111.764C109.781 111.962 109.543 112.098 109.189 112.172L104.861 113.078C104.508 113.152 104.233 113.123 104.037 112.992C103.858 112.836 103.734 112.56 103.668 112.164L102.508 105.227L97.8444 106.204L99.0047 113.14C99.0709 113.536 99.0359 113.845 98.8997 114.068C98.7786 114.266 98.5413 114.402 98.1876 114.476Z" fill="white"/>
<path d="M120.947 111.059C120.492 111.063 120.16 110.949 119.95 110.718C119.741 110.486 119.634 110.116 119.631 109.608L119.606 105.825C119.603 105.316 119.704 104.945 119.912 104.71C120.118 104.475 120.449 104.356 120.903 104.352L123.432 104.332L123.367 94.2865L120.839 94.3069C120.384 94.3106 120.052 94.1967 119.842 93.9653C119.633 93.7338 119.526 93.3638 119.523 92.8552L119.498 89.0087C119.495 88.5001 119.596 88.1284 119.803 87.8936C120.01 87.6588 120.341 87.5396 120.795 87.5359L132.898 87.4383C133.351 87.4346 133.684 87.5485 133.894 87.78C134.104 88.0114 134.21 88.3814 134.214 88.8901L134.239 92.7364C134.241 93.2451 134.14 93.6168 133.933 93.8516C133.726 94.0864 133.395 94.2056 132.941 94.2093L130.469 94.2292L130.534 104.274L133.006 104.254C133.46 104.251 133.792 104.365 134.002 104.596C134.212 104.828 134.319 105.198 134.322 105.706L134.346 109.489C134.349 109.998 134.248 110.369 134.041 110.604C133.834 110.839 133.503 110.958 133.049 110.962L120.947 111.059ZM120.944 110.742L133.047 110.644C133.407 110.641 133.662 110.554 133.812 110.383C133.981 110.191 134.065 109.894 134.062 109.491L134.038 105.708C134.035 105.306 133.948 105.02 133.776 104.852C133.623 104.663 133.368 104.569 133.008 104.572L130.252 104.595L130.183 93.9136L132.939 93.8914C133.299 93.8885 133.554 93.8017 133.704 93.6309C133.873 93.4388 133.957 93.1414 133.954 92.7387L133.93 88.8923C133.927 88.4897 133.839 88.2043 133.668 88.0361C133.516 87.8466 133.259 87.7533 132.899 87.7562L120.797 87.8538C120.437 87.8567 120.173 87.9542 120.003 88.1463C119.854 88.3171 119.78 88.6038 119.782 89.0064L119.807 92.8529C119.81 93.2556 119.887 93.5516 120.04 93.7411C120.212 93.9093 120.477 93.992 120.837 93.989L123.649 93.9664L123.718 104.647L120.905 104.67C120.546 104.673 120.281 104.77 120.112 104.962C119.962 105.133 119.888 105.42 119.89 105.823L119.915 109.605C119.917 110.008 119.995 110.304 120.148 110.494C120.319 110.662 120.585 110.744 120.944 110.742ZM131.494 107.795L122.46 107.868L122.459 107.55L126.861 107.515L126.755 90.9848L122.352 91.0203L122.35 90.7024L131.383 90.6295L131.386 90.9474L127.039 90.9825L127.145 107.513L131.492 107.477L131.494 107.795Z" fill="white"/>
<path d="M155.77 100.878C155.434 100.81 155.205 100.678 155.083 100.481C154.96 100.284 154.784 99.8828 154.554 99.2767L152.078 92.7712C152 92.5401 151.89 92.3783 151.752 92.2857C151.616 92.1723 151.474 92.1006 151.324 92.0705L150.849 91.9749C150.607 91.9262 150.407 91.9721 150.25 92.1128C150.114 92.2363 150.02 92.465 149.966 92.7987L147.408 108.724L147.688 108.781L150.246 92.8549C150.273 92.688 150.324 92.5477 150.4 92.4337C150.479 92.299 150.613 92.2504 150.799 92.2878L151.219 92.3722C151.349 92.3984 151.457 92.4418 151.544 92.5022C151.649 92.5664 151.741 92.7141 151.819 92.9451L154.306 99.3882C154.551 100.019 154.741 100.455 154.875 100.698C155.028 100.944 155.309 101.108 155.719 101.191C156.129 101.273 156.435 101.227 156.636 101.052C156.856 100.881 157.179 100.547 157.605 100.052L161.941 94.9807C162.086 94.7946 162.209 94.6901 162.309 94.6671C162.409 94.6441 162.524 94.6458 162.655 94.672L163.074 94.7563C163.26 94.7938 163.37 94.8912 163.402 95.0485C163.456 95.1886 163.471 95.3421 163.444 95.509L160.885 111.435L161.165 111.491L163.723 95.5652C163.777 95.2315 163.75 94.9785 163.643 94.8062C163.558 94.6169 163.385 94.4959 163.124 94.4435L162.649 94.3478C162.5 94.3179 162.344 94.3296 162.181 94.3831C162.04 94.4194 161.898 94.5306 161.753 94.7167L157.407 99.8503C157.003 100.329 156.712 100.637 156.537 100.774C156.361 100.91 156.105 100.945 155.77 100.878ZM149.165 111.985L144.999 111.147C144.645 111.075 144.398 110.94 144.256 110.739C144.138 110.521 144.11 110.214 144.173 109.818L147.429 89.5432C147.493 89.1469 147.613 88.8802 147.789 88.7434C147.987 88.5894 148.263 88.548 148.617 88.6192L153.119 89.5245C153.417 89.5845 153.648 89.7063 153.811 89.8897C153.992 90.077 154.14 90.3544 154.254 90.7218L155.952 96.3278C156.015 96.5343 156.067 96.6849 156.11 96.7796C156.171 96.878 156.258 96.9385 156.37 96.961L156.621 97.0116C156.733 97.034 156.824 97.0093 156.893 96.937C156.981 96.8686 157.086 96.7499 157.21 96.5809L160.518 91.9814C160.739 91.6814 160.954 91.4771 161.165 91.3686C161.393 91.2638 161.656 91.2414 161.954 91.3014L166.484 92.2123C166.839 92.2835 167.075 92.428 167.194 92.6458C167.335 92.8464 167.373 93.1448 167.31 93.5411L164.054 113.816C163.99 114.212 163.859 114.487 163.661 114.641C163.486 114.778 163.22 114.811 162.866 114.74L158.56 113.874C158.206 113.803 157.959 113.667 157.817 113.466C157.699 113.248 157.671 112.941 157.734 112.545L159.503 101.532L157.306 104.61C157.081 104.931 156.834 105.151 156.565 105.269C156.318 105.37 156.018 105.385 155.663 105.313L154.545 105.089C154.19 105.017 153.904 104.884 153.685 104.69C153.488 104.478 153.334 104.178 153.224 103.789L152.121 100.047L150.353 111.061C150.289 111.457 150.158 111.732 149.96 111.886C149.785 112.023 149.52 112.056 149.165 111.985Z" fill="white"/>
<path d="M182.169 121.671L173.784 118.082C173.448 117.939 173.227 117.753 173.122 117.527C173.042 117.288 173.066 116.981 173.195 116.605L174.381 113.131C174.51 112.755 174.672 112.518 174.868 112.42C175.088 112.31 175.366 112.327 175.702 112.471L182.84 115.525C183.07 115.623 183.265 115.616 183.425 115.503C183.61 115.378 183.743 115.197 183.824 114.959C183.939 114.623 183.962 114.349 183.892 114.137C183.84 113.934 183.702 113.773 183.479 113.654L179.712 111.328C178.541 110.6 177.697 109.717 177.18 108.679C176.681 107.648 176.715 106.302 177.283 104.639L178.349 101.521C178.924 99.8385 179.85 98.7599 181.128 98.2856C182.412 97.7913 183.912 97.9113 185.628 98.6456L193.057 101.825C193.393 101.969 193.602 102.16 193.682 102.399C193.788 102.625 193.776 102.926 193.648 103.303L192.44 106.836C192.312 107.212 192.137 107.455 191.917 107.565C191.722 107.663 191.455 107.64 191.119 107.496L184.937 104.85C184.707 104.752 184.499 104.765 184.315 104.891C184.137 104.996 184.003 105.177 183.916 105.435C183.828 105.692 183.815 105.936 183.878 106.167C183.941 106.399 184.084 106.573 184.307 106.691L188.058 108.977C189.229 109.705 190.073 110.588 190.59 111.626C191.107 112.664 191.082 114.015 190.513 115.677L189.448 118.795C188.873 120.478 187.935 121.562 186.633 122.049C185.355 122.523 183.868 122.397 182.169 121.671ZM190.712 103.884L184.82 101.363C184.007 101.015 183.264 100.992 182.593 101.295C181.929 101.578 181.461 102.115 181.19 102.907L180.359 105.342C180.081 106.154 180.03 106.778 180.204 107.216C180.404 107.642 180.717 108.002 181.143 108.298L186.305 111.971C186.76 112.302 187.068 112.706 187.229 113.183C187.415 113.648 187.349 114.346 187.031 115.276L186.442 116.998C186.172 117.79 185.701 118.338 185.03 118.64C184.383 118.931 183.653 118.902 182.839 118.554L176.231 115.726L176.131 116.023L182.738 118.851C183.64 119.237 184.451 119.266 185.171 118.939C185.898 118.592 186.41 117.983 186.708 117.112L187.296 115.39C187.648 114.361 187.714 113.572 187.496 113.025C187.295 112.485 186.95 112.042 186.46 111.697L181.298 108.024C180.918 107.771 180.651 107.452 180.498 107.069C180.345 106.686 180.387 106.148 180.623 105.456L181.456 103.021C181.692 102.328 182.11 101.848 182.708 101.582C183.305 101.316 183.976 101.342 184.719 101.66L190.61 104.181L190.712 103.884Z" fill="white"/>
<path d="M202.757 121.528C203.021 121.038 203.299 120.606 203.589 120.233C203.895 119.87 204.202 119.546 204.512 119.26L208.476 115.848C208.883 115.504 209.267 115.243 209.628 115.066C209.998 114.871 210.427 114.938 210.913 115.266L213.297 116.876C213.751 117.183 213.987 117.565 214.006 118.023C214.034 118.463 214.01 118.979 213.934 119.571L213.219 125.141C213.137 125.58 213.016 126.031 212.855 126.492C212.711 126.964 212.507 127.445 212.243 127.935L211.788 128.778L202.302 122.372L202.757 121.528ZM209.687 118.523L206.313 121.887L210.131 124.467L211.22 119.558C211.243 119.351 211.234 119.183 211.192 119.056C211.166 118.94 211.105 118.849 211.008 118.783L210.399 118.372C210.302 118.307 210.193 118.283 210.073 118.3C209.969 118.329 209.841 118.403 209.687 118.523ZM209.116 133.732L209.359 133.896L212.486 128.099C212.76 127.591 212.969 127.101 213.113 126.629C213.283 126.15 213.411 125.667 213.496 125.18L214.212 119.61C214.3 118.953 214.324 118.375 214.283 117.877C214.258 117.39 213.979 116.965 213.444 116.604L211.06 114.994C210.509 114.622 210.027 114.531 209.614 114.723C209.201 114.914 208.768 115.203 208.316 115.591L204.351 119.003C204.006 119.315 203.676 119.661 203.36 120.041C203.07 120.415 202.788 120.856 202.514 121.364L199.387 127.161L199.63 127.325L202.155 122.644L211.641 129.051L209.116 133.732ZM201.343 130.487C201.157 130.831 200.947 131.036 200.713 131.101C200.505 131.158 200.246 131.083 199.939 130.875L196.364 128.46C196.055 128.252 195.867 128.026 195.8 127.782C195.758 127.532 195.83 127.234 196.016 126.889L199.892 119.704C200.185 119.16 200.596 118.583 201.123 117.974C201.667 117.376 202.356 116.715 203.19 115.99L208.638 111.241C208.902 110.999 209.17 110.87 209.442 110.857C209.731 110.854 210.038 110.962 210.363 111.181L216.905 115.6C217.214 115.808 217.425 116.051 217.542 116.327C217.675 116.615 217.706 116.945 217.637 117.32L216.42 124.927C216.236 126.089 216.025 127.074 215.79 127.88C215.57 128.697 215.314 129.378 215.02 129.922L211.144 137.107C210.958 137.452 210.748 137.656 210.514 137.721C210.306 137.779 210.048 137.703 209.74 137.495L206.067 135.015C205.744 134.796 205.539 134.559 205.455 134.304C205.398 134.042 205.462 133.739 205.648 133.394L207.703 129.584L203.398 126.676L201.343 130.487Z" fill="white"/>
</svg>
