<svg width="115" height="41" viewBox="0 0 115 41" fill="none" xmlns="http://www.w3.org/2000/svg">
<path d="M13.5383 25.1505C13.7507 25.5585 13.8874 25.9711 13.9481 26.3884C14.0125 26.7911 13.9637 27.2126 13.8016 27.6527C13.6431 28.0782 13.3527 28.5295 12.9303 29.0066C12.508 29.4836 11.9159 29.9887 11.1539 30.5219C10.3919 31.055 9.73045 31.4271 9.16957 31.638C8.60869 31.849 8.12483 31.9395 7.71798 31.9095C7.31471 31.865 6.97028 31.7187 6.68469 31.4708C6.40268 31.2083 6.15545 30.873 5.943 30.465L2.51385 23.8793C2.4261 23.7108 2.39652 23.5681 2.42512 23.4513C2.4573 23.3199 2.55122 23.1997 2.7069 23.0908L4.63644 21.7406C4.79212 21.6317 4.92351 21.5942 5.03062 21.6282C5.14131 21.6475 5.24053 21.7415 5.32828 21.91L8.48726 27.9768C8.57963 28.1542 8.71959 28.262 8.90715 28.3002C9.09009 28.3295 9.39459 28.1951 9.82065 27.897C10.2549 27.5931 10.5035 27.3406 10.5663 27.1393C10.6246 26.9291 10.6075 26.7353 10.5151 26.5579L7.35615 20.4911C7.2684 20.3226 7.23882 20.1799 7.26742 20.0631C7.2996 19.9316 7.39352 19.8115 7.5492 19.7025L9.41729 18.3954C9.57297 18.2865 9.70436 18.249 9.81147 18.2829C9.92216 18.3023 10.0214 18.3962 10.1091 18.5648L13.5383 25.1505ZM4.23985 23.6518L7.12865 29.1998C7.40576 29.7319 7.80002 30.049 8.31145 30.151C8.82645 30.2384 9.56327 29.9467 10.5219 29.2759C11.4805 28.6052 12.0465 27.9853 12.2197 27.4163C12.3883 26.8385 12.3341 26.2835 12.057 25.7513L9.16818 20.2034L9.04528 20.2894L11.9341 25.8373C12.1927 26.334 12.239 26.8522 12.0729 27.392C11.9022 27.9229 11.3621 28.5065 10.4526 29.1429C9.54315 29.7793 8.84604 30.0613 8.36128 29.9891C7.88009 29.9022 7.51018 29.6105 7.25155 29.1138L4.36275 23.5658L4.23985 23.6518Z" fill="white"/>
<path d="M28.2286 20.3057L24.8826 21.789C23.7399 22.2956 22.8114 22.4351 22.0971 22.2074C21.3919 21.9758 20.8764 21.3661 20.5506 20.3785L19.0892 15.9483C18.7634 14.9606 18.7964 14.1078 19.1883 13.3898C19.5862 12.6583 20.3565 12.0392 21.4993 11.5327L24.8452 10.0494C25.0189 9.97239 25.1565 9.96042 25.2578 10.0135C25.3651 10.053 25.4486 10.1629 25.5081 10.3434L26.0767 12.067C26.1362 12.2474 26.1389 12.3986 26.0848 12.5206C26.0368 12.629 25.9259 12.7217 25.7522 12.7987L22.9959 14.0205C22.7125 14.1462 22.5226 14.3011 22.4262 14.4854C22.3266 14.6601 22.316 14.8662 22.3943 15.1036L23.5127 18.4939C23.591 18.7313 23.7176 18.8766 23.8923 18.9298C24.0639 18.9734 24.2914 18.9325 24.5748 18.8068L27.3311 17.585C27.5048 17.508 27.6423 17.496 27.7436 17.549C27.851 17.5885 27.9344 17.6985 27.9939 17.8789L28.5531 19.5741C28.6126 19.7545 28.6154 19.9057 28.5613 20.0277C28.5132 20.1361 28.4023 20.2287 28.2286 20.3057ZM27.0045 19.2156L24.7144 20.2308C23.8916 20.5955 23.3008 20.7105 22.942 20.5756C22.5831 20.4408 22.3019 20.0648 22.0983 19.4475L20.7825 15.4589C20.5757 14.8321 20.5718 14.3277 20.7706 13.9457C20.9663 13.5541 21.4664 13.18 22.2709 12.8234L24.5609 11.8082L24.5139 11.6658L22.2239 12.681C21.3462 13.07 20.8081 13.4718 20.6096 13.8864C20.411 14.301 20.423 14.8454 20.6454 15.5197L21.9611 19.5083C22.1773 20.1635 22.4741 20.5708 22.8515 20.7301C23.238 20.8853 23.8746 20.7663 24.7614 20.3732L27.0515 19.358L27.0045 19.2156Z" fill="white"/>
<path d="M37.0827 15.5134L37.2293 15.4815L36.5957 11.5574L42.2248 10.336L42.8584 14.2602L43.005 14.2284L41.7139 6.23197L41.5673 6.26377L42.2009 10.188L36.5718 11.4093L35.9382 7.48511L35.7916 7.51691L37.0827 15.5134ZM38.5146 16.5821L36.2425 17.0751C36.0568 17.1154 35.9136 17.1056 35.8129 17.0457C35.7204 16.9738 35.659 16.8441 35.6287 16.6565L34.0794 7.06077C34.0491 6.8732 34.0667 6.73144 34.1321 6.6355C34.2057 6.52757 34.3353 6.45346 34.521 6.41317L36.7932 5.92018C36.9788 5.8799 37.1179 5.8957 37.2105 5.96758C37.3112 6.02748 37.3767 6.15121 37.4069 6.33878L37.9258 9.55217L40.3738 9.02101L39.855 5.80763C39.8247 5.62006 39.8423 5.4783 39.9077 5.38236C39.9813 5.27443 40.111 5.20032 40.2966 5.16003L42.5688 4.66704C42.7545 4.62676 42.8936 4.64256 42.9861 4.71444C43.0868 4.77434 43.1523 4.89807 43.1826 5.08564L44.7319 14.6814C44.7622 14.8689 44.7405 15.0167 44.6669 15.1246C44.6015 15.2206 44.4759 15.2887 44.2902 15.329L42.0181 15.822C41.8324 15.8622 41.6892 15.8524 41.5885 15.7925C41.496 15.7207 41.4346 15.5909 41.4043 15.4034L40.8735 12.1159L38.4255 12.6471L38.9563 15.9345C38.9866 16.1221 38.9649 16.2698 38.8913 16.3778C38.8259 16.4737 38.7003 16.5418 38.5146 16.5821Z" fill="white"/>
<path d="M52.8572 14.2258C52.6172 14.2278 52.4419 14.1742 52.3312 14.0651C52.2205 13.9561 52.1644 13.7815 52.1629 13.5415L52.1518 11.7566C52.1504 11.5166 52.2043 11.3411 52.3136 11.2302C52.4229 11.1193 52.5975 11.0628 52.8375 11.0608L54.1725 11.0497L54.143 6.30976L52.8081 6.32091C52.5681 6.32292 52.3927 6.26938 52.282 6.1603C52.1714 6.05122 52.1153 5.87669 52.1138 5.63669L52.1025 3.82173C52.101 3.58173 52.1549 3.40627 52.2642 3.29536C52.3735 3.18444 52.5482 3.12798 52.7882 3.12597L59.178 3.07257C59.418 3.07057 59.5933 3.12411 59.704 3.23318C59.8147 3.34226 59.8707 3.5168 59.8722 3.7568L59.8835 5.57176C59.885 5.81176 59.8311 5.98721 59.7218 6.09813C59.6125 6.20905 59.4378 6.26551 59.1978 6.26751L57.8929 6.27842L57.9224 11.0183L59.2273 11.0074C59.4673 11.0054 59.6426 11.059 59.7533 11.168C59.864 11.2771 59.9201 11.4516 59.9216 11.6916L59.9327 13.4766C59.9342 13.7166 59.8803 13.8921 59.7709 14.003C59.6616 14.1139 59.487 14.1704 59.247 14.1724L52.8572 14.2258ZM52.8563 14.0758L59.2461 14.0224C59.4361 14.0208 59.5708 13.9796 59.6503 13.899C59.7397 13.8082 59.7839 13.6679 59.7827 13.4779L59.7716 11.6929C59.7704 11.5029 59.7246 11.3683 59.6341 11.289C59.5535 11.1997 59.4182 11.1558 59.2282 11.1574L57.7733 11.1696L57.7419 6.12967L59.1969 6.11752C59.3869 6.11593 59.5216 6.0748 59.6011 5.99413C59.6906 5.90338 59.7347 5.76301 59.7335 5.57301L59.7222 3.75805C59.7211 3.56805 59.6752 3.43343 59.5847 3.35418C59.5042 3.26486 59.3689 3.22098 59.1789 3.22257L52.7891 3.27597C52.5991 3.27756 52.4594 3.32373 52.37 3.41448C52.2905 3.49514 52.2513 3.63048 52.2525 3.82047L52.2638 5.63544C52.265 5.82543 52.3058 5.9651 52.3864 6.05443C52.4769 6.13367 52.6171 6.1725 52.8071 6.17091L54.2921 6.1585L54.3234 11.1984L52.8385 11.2108C52.6485 11.2124 52.5088 11.2586 52.4193 11.3493C52.3398 11.43 52.3007 11.5653 52.3018 11.7553L52.3129 13.5403C52.3141 13.7303 52.355 13.8699 52.4355 13.9593C52.526 14.0385 52.6663 14.0773 52.8563 14.0758ZM58.4277 12.6792L53.6579 12.719L53.6569 12.569L55.9818 12.5496L55.9333 4.74974L53.6084 4.76917L53.6075 4.61917L58.3773 4.57931L58.3783 4.72931L56.0833 4.74849L56.1318 12.5483L58.4268 12.5292L58.4277 12.6792Z" fill="white"/>
<path d="M73.1766 9.66725C73.0004 9.63053 72.8792 9.56449 72.8132 9.46912C72.7471 9.37375 72.6508 9.18026 72.5242 8.88866L71.1601 5.75836C71.1167 5.6473 71.0581 5.56879 70.9844 5.52283C70.9122 5.46699 70.8369 5.4309 70.7586 5.41459L70.509 5.36258C70.3817 5.33607 70.2777 5.3552 70.1969 5.41998C70.1274 5.47691 70.0804 5.58444 70.0559 5.74255L68.8862 13.2874L69.0331 13.318L70.2028 5.77314C70.215 5.69409 70.2404 5.62797 70.279 5.5748C70.3191 5.51174 70.3881 5.49042 70.486 5.51081L70.7062 5.5567C70.7748 5.57098 70.832 5.5931 70.8779 5.62306C70.9335 5.65506 70.9831 5.72659 71.0265 5.83764L72.3952 8.9383C72.5301 9.24182 72.6339 9.45217 72.7067 9.56935C72.7892 9.68856 72.9382 9.7706 73.1536 9.81547C73.369 9.86034 73.5284 9.84255 73.6318 9.76208C73.745 9.68366 73.9104 9.5294 74.128 9.2993L76.3424 6.94511C76.4164 6.85853 76.4795 6.81046 76.5315 6.80089C76.5835 6.79132 76.6438 6.79368 76.7123 6.80796L76.9326 6.85385C77.0305 6.87424 77.0887 6.92209 77.1074 6.99738C77.1373 7.06483 77.1462 7.13808 77.1339 7.21714L75.9643 14.762L76.1111 14.7926L77.2808 7.24773C77.3053 7.08962 77.2887 6.96884 77.2309 6.88539C77.1844 6.79409 77.0926 6.73417 76.9555 6.70562L76.7059 6.65361C76.6276 6.63729 76.5462 6.64074 76.4618 6.66395C76.3886 6.67932 76.315 6.7303 76.241 6.81688L74.022 9.20071C73.8158 9.42297 73.6673 9.56546 73.5768 9.6282C73.4862 9.69094 73.3528 9.70396 73.1766 9.66725ZM69.8395 14.8632L67.6515 14.4073C67.4655 14.3686 67.3345 14.3005 67.2587 14.2031C67.1942 14.0978 67.1764 13.9513 67.2056 13.7636L68.6947 4.15831C68.7238 3.97056 68.7836 3.84531 68.8742 3.78257C68.9761 3.71199 69.12 3.69607 69.306 3.73482L71.6703 4.22737C71.8269 4.26001 71.9488 4.32111 72.036 4.41067C72.133 4.50228 72.2132 4.63632 72.2768 4.81279L73.2239 7.50426C73.259 7.6034 73.2882 7.67579 73.3115 7.72144C73.3445 7.76912 73.3904 7.79908 73.4491 7.81132L73.5813 7.83885C73.64 7.85109 73.6872 7.8405 73.7227 7.8071C73.7679 7.77573 73.822 7.72067 73.8847 7.64193L75.5662 5.49807C75.6788 5.35832 75.7895 5.26405 75.8981 5.21527C76.0165 5.16853 76.154 5.16148 76.3107 5.19411L78.6896 5.68972C78.8756 5.72847 79.0008 5.80047 79.0654 5.90573C79.1412 6.00314 79.1646 6.14572 79.1355 6.33348L77.6464 15.9387C77.6173 16.1265 77.5518 16.2557 77.4499 16.3262C77.3593 16.389 77.221 16.401 77.035 16.3622L74.7736 15.8911C74.5876 15.8523 74.4566 15.7843 74.3808 15.6869C74.3162 15.5816 74.2985 15.4351 74.3276 15.2473L75.1365 10.0297L74.0197 11.4649C73.9055 11.6145 73.7787 11.7156 73.6391 11.7681C73.5109 11.8128 73.3538 11.8158 73.1678 11.7771L72.5804 11.6547C72.3944 11.6159 72.2432 11.5487 72.1266 11.453C72.0214 11.3495 71.9378 11.2046 71.8757 11.0182L71.2598 9.22201L70.4509 14.4397C70.4218 14.6274 70.3563 14.7566 70.2544 14.8272C70.1638 14.8899 70.0255 14.9019 69.8395 14.8632Z" fill="white"/>
<path d="M89.3878 20.7912L85.0545 18.8703C84.8808 18.7933 84.7653 18.6986 84.7081 18.5861C84.6632 18.4682 84.6705 18.3191 84.73 18.1386L85.2798 16.472C85.3393 16.2915 85.4182 16.1795 85.5164 16.136C85.6268 16.087 85.7689 16.101 85.9426 16.178L89.6314 17.8132C89.7503 17.8659 89.8497 17.8664 89.9296 17.8148C90.0218 17.7577 90.0866 17.6721 90.1242 17.5582C90.1775 17.3967 90.1847 17.2638 90.1457 17.1595C90.1159 17.0592 90.0432 16.978 89.9275 16.9158L87.9692 15.7048C87.3606 15.3262 86.9161 14.8788 86.6358 14.3626C86.3646 13.8505 86.3606 13.1956 86.6237 12.3979L87.1171 10.9022C87.3834 10.095 87.8385 9.58915 88.4823 9.3847C89.1292 9.17075 89.896 9.26032 90.7828 9.65343L94.6224 11.3555C94.7961 11.4325 94.9054 11.53 94.9504 11.6479C95.0076 11.7603 95.0065 11.9068 94.9469 12.0872L94.3877 13.7823C94.3282 13.9628 94.2432 14.0775 94.1327 14.1265C94.0345 14.17 93.8986 14.1533 93.7249 14.0763L90.5298 12.6599C90.4109 12.6072 90.3054 12.6094 90.2132 12.6665C90.1242 12.7142 90.0593 12.7997 90.0185 12.9231C89.9778 13.0466 89.9754 13.1652 90.0112 13.2791C90.047 13.3929 90.1227 13.4809 90.2384 13.5431L92.1877 14.7338C92.7963 15.1124 93.2408 15.5598 93.5211 16.076C93.8014 16.5921 93.81 17.249 93.5468 18.0467L93.0534 19.5425C92.7872 20.3497 92.326 20.8582 91.6699 21.0681C91.0261 21.2726 90.2654 21.1803 89.3878 20.7912ZM93.459 12.3093L90.4147 10.9598C89.9942 10.7734 89.6152 10.7469 89.2778 10.8803C88.9435 11.0043 88.7137 11.2562 88.5884 11.636L88.203 12.8041C88.0746 13.1935 88.0585 13.4965 88.1546 13.7133C88.263 13.9247 88.4282 14.1068 88.6503 14.2596L91.3417 16.1548C91.5788 16.3253 91.7424 16.5284 91.8323 16.7642C91.9344 16.9945 91.9119 17.3328 91.7646 17.7792L91.4921 18.6054C91.3668 18.9853 91.1354 19.2419 90.798 19.3753C90.4728 19.5033 90.1 19.4741 89.6794 19.2877L86.2649 17.7741L86.2179 17.9165L89.6325 19.4302C90.0987 19.6368 90.5128 19.668 90.8748 19.5237C91.2399 19.3699 91.4914 19.084 91.6292 18.6662L91.9018 17.84C92.0647 17.3462 92.086 16.9637 91.9658 16.6928C91.8548 16.4258 91.6715 16.2031 91.4161 16.0245L88.7247 14.1293C88.527 13.9981 88.386 13.8377 88.3019 13.648C88.2178 13.4583 88.2305 13.1973 88.3402 12.8649L88.7255 11.6968C88.8351 11.3644 89.0403 11.1397 89.3409 11.0226C89.6415 10.9055 89.9838 10.932 90.3677 11.1022L93.412 12.4518L93.459 12.3093Z" fill="white"/>
<path d="M102 22.4576C102.125 22.2181 102.257 22.0078 102.396 21.8268C102.543 21.6514 102.691 21.4951 102.841 21.3579L104.764 19.7263C104.961 19.5619 105.148 19.4387 105.325 19.3567C105.507 19.2659 105.72 19.3064 105.966 19.4784L107.17 20.3212C107.4 20.4817 107.522 20.6762 107.537 20.9046C107.557 21.1242 107.552 21.3808 107.522 21.6745L107.241 24.4365C107.206 24.654 107.152 24.8763 107.078 25.1032C107.013 25.3359 106.918 25.572 106.793 25.8114L106.579 26.2239L101.785 22.87L102 22.4576ZM105.401 21.0795L103.77 22.6976L105.7 24.0477L106.175 21.6213C106.184 21.5185 106.177 21.4351 106.154 21.3709C106.14 21.3125 106.108 21.2661 106.059 21.2317L105.752 21.0167C105.703 20.9823 105.648 20.9685 105.589 20.9753C105.538 20.9879 105.475 21.0226 105.401 21.0795ZM105.318 28.6453L105.441 28.7313L106.916 25.8974C107.046 25.6491 107.143 25.4086 107.208 25.1759C107.286 24.9401 107.343 24.7017 107.379 24.4607L107.66 21.6987C107.696 21.3727 107.7 21.0853 107.673 20.8365C107.655 20.5934 107.51 20.3773 107.24 20.1881L106.035 19.3454C105.757 19.1504 105.516 19.0971 105.314 19.1854C105.111 19.2736 104.9 19.4104 104.681 19.5957L102.758 21.2272C102.591 21.3765 102.432 21.5433 102.28 21.7275C102.141 21.9085 102.007 22.1232 101.877 22.3716L100.402 25.2054L100.525 25.2914L101.716 23.0031L106.509 26.3569L105.318 28.6453ZM101.416 26.8956C101.329 27.0642 101.227 27.1625 101.112 27.1908C101.009 27.2159 100.88 27.1739 100.725 27.065L98.9179 25.8009C98.7623 25.6919 98.666 25.5762 98.6292 25.4536C98.6053 25.3279 98.6371 25.1808 98.7249 25.0123L100.554 21.4999C100.692 21.2339 100.889 20.9536 101.142 20.6593C101.404 20.3707 101.737 20.0532 102.142 19.7066L104.783 17.4347C104.911 17.3183 105.042 17.259 105.178 17.2568C105.321 17.2604 105.475 17.3195 105.639 17.4342L108.945 19.7475C109.1 19.8564 109.209 19.9808 109.27 20.1205C109.34 20.266 109.36 20.4313 109.331 20.6165L108.827 24.3848C108.751 24.9607 108.66 25.4474 108.553 25.8449C108.455 26.2481 108.337 26.5828 108.198 26.8489L106.369 30.3613C106.282 30.5298 106.18 30.6282 106.065 30.6564C105.962 30.6815 105.833 30.6396 105.678 30.5307L103.822 29.2321C103.658 29.1174 103.553 28.996 103.508 28.8677C103.476 28.7363 103.504 28.5863 103.592 28.4178L104.562 26.5551L102.386 25.033L101.416 26.8956Z" fill="white"/>
</svg>
