<svg width="115" height="41" viewBox="0 0 115 41" fill="none" xmlns="http://www.w3.org/2000/svg">
<path d="M13.5383 25.1505C13.7507 25.5585 13.8874 25.9711 13.9481 26.3884C14.0125 26.7911 13.9637 27.2126 13.8016 27.6527C13.6431 28.0782 13.3527 28.5295 12.9303 29.0066C12.508 29.4836 11.9159 29.9887 11.1539 30.5219C10.3919 31.055 9.73043 31.4271 9.16955 31.638C8.60867 31.849 8.12481 31.9395 7.71796 31.9095C7.31469 31.865 6.97026 31.7187 6.68467 31.4708C6.40266 31.2083 6.15543 30.873 5.94298 30.465L2.51383 23.8793C2.42608 23.7108 2.3965 23.5681 2.4251 23.4513C2.45728 23.3199 2.5512 23.1997 2.70688 23.0908L4.63642 21.7406C4.7921 21.6317 4.92349 21.5942 5.0306 21.6282C5.14129 21.6475 5.24051 21.7415 5.32826 21.91L8.48724 27.9768C8.57961 28.1542 8.71957 28.262 8.90713 28.3002C9.09007 28.3295 9.39457 28.1951 9.82063 27.897C10.2549 27.5931 10.5035 27.3406 10.5663 27.1393C10.6246 26.9291 10.6075 26.7353 10.5151 26.5579L7.35613 20.4911C7.26838 20.3226 7.2388 20.1799 7.2674 20.0631C7.29958 19.9316 7.3935 19.8115 7.54918 19.7025L9.41726 18.3954C9.57294 18.2865 9.70434 18.249 9.81145 18.2829C9.92214 18.3023 10.0214 18.3962 10.1091 18.5648L13.5383 25.1505ZM4.23983 23.6518L7.12863 29.1998C7.40574 29.7319 7.8 30.049 8.31143 30.151C8.82643 30.2384 9.56325 29.9467 10.5219 29.2759C11.4805 28.6052 12.0465 27.9853 12.2197 27.4163C12.3883 26.8385 12.3341 26.2835 12.057 25.7513L9.16816 20.2034L9.04526 20.2894L11.9341 25.8373C12.1927 26.334 12.239 26.8522 12.0729 27.392C11.9022 27.9229 11.3621 28.5065 10.4526 29.1429C9.54312 29.7793 8.84602 30.0613 8.36126 29.9891C7.88007 29.9022 7.51016 29.6105 7.25153 29.1138L4.36273 23.5658L4.23983 23.6518Z" fill="url(#paint0_linear_10_2)"/>
<path d="M28.2287 20.3057L24.8827 21.789C23.74 22.2956 22.8115 22.4351 22.0972 22.2074C21.392 21.9758 20.8765 21.3661 20.5507 20.3785L19.0893 15.9483C18.7635 14.9606 18.7965 14.1078 19.1884 13.3898C19.5863 12.6583 20.3566 12.0392 21.4994 11.5327L24.8453 10.0494C25.019 9.97239 25.1566 9.96042 25.2579 10.0135C25.3652 10.053 25.4487 10.1629 25.5082 10.3434L26.0768 12.067C26.1363 12.2474 26.139 12.3986 26.0849 12.5206C26.0369 12.629 25.926 12.7217 25.7523 12.7987L22.996 14.0205C22.7126 14.1462 22.5227 14.3011 22.4263 14.4854C22.3267 14.6601 22.3161 14.8662 22.3944 15.1036L23.5128 18.4939C23.5911 18.7313 23.7177 18.8766 23.8924 18.9298C24.064 18.9734 24.2915 18.9325 24.5749 18.8068L27.3312 17.585C27.5049 17.508 27.6424 17.496 27.7437 17.549C27.8511 17.5885 27.9345 17.6985 27.994 17.8789L28.5532 19.5741C28.6127 19.7545 28.6155 19.9057 28.5614 20.0277C28.5133 20.1361 28.4024 20.2287 28.2287 20.3057ZM27.0046 19.2156L24.7145 20.2308C23.8917 20.5955 23.3009 20.7105 22.9421 20.5756C22.5832 20.4408 22.302 20.0648 22.0984 19.4475L20.7826 15.4589C20.5758 14.8321 20.5719 14.3277 20.7707 13.9457C20.9664 13.5541 21.4665 13.18 22.271 12.8234L24.561 11.8082L24.514 11.6658L22.224 12.681C21.3463 13.07 20.8082 13.4718 20.6097 13.8864C20.4111 14.301 20.4231 14.8454 20.6455 15.5197L21.9612 19.5083C22.1774 20.1635 22.4742 20.5708 22.8516 20.7301C23.2381 20.8853 23.8747 20.7663 24.7615 20.3732L27.0516 19.358L27.0046 19.2156Z" fill="url(#paint1_linear_10_2)"/>
<path d="M37.0826 15.5134L37.2292 15.4815L36.5956 11.5574L42.2247 10.336L42.8583 14.2602L43.0049 14.2284L41.7138 6.23198L41.5672 6.26378L42.2008 10.188L36.5717 11.4093L35.9381 7.48512L35.7915 7.51692L37.0826 15.5134ZM38.5145 16.5821L36.2424 17.0751C36.0567 17.1154 35.9135 17.1056 35.8128 17.0457C35.7203 16.9738 35.6589 16.8441 35.6286 16.6565L34.0793 7.06078C34.049 6.87321 34.0666 6.73145 34.132 6.63551C34.2056 6.52758 34.3352 6.45347 34.5209 6.41318L36.7931 5.92019C36.9787 5.87991 37.1178 5.89571 37.2104 5.96759C37.3111 6.02749 37.3766 6.15122 37.4068 6.33879L37.9257 9.55218L40.3737 9.02102L39.8549 5.80764C39.8246 5.62007 39.8422 5.47831 39.9076 5.38237C39.9812 5.27444 40.1109 5.20033 40.2965 5.16004L42.5687 4.66705C42.7544 4.62677 42.8935 4.64257 42.986 4.71445C43.0867 4.77435 43.1522 4.89808 43.1825 5.08565L44.7318 14.6814C44.7621 14.8689 44.7404 15.0167 44.6668 15.1246C44.6014 15.2206 44.4758 15.2887 44.2901 15.329L42.018 15.822C41.8323 15.8622 41.6891 15.8524 41.5884 15.7925C41.4959 15.7207 41.4345 15.5909 41.4042 15.4034L40.8734 12.1159L38.4254 12.6471L38.9562 15.9345C38.9865 16.1221 38.9648 16.2698 38.8912 16.3778C38.8258 16.4737 38.7002 16.5418 38.5145 16.5821Z" fill="url(#paint2_linear_10_2)"/>
<path d="M52.8573 14.2258C52.6173 14.2278 52.442 14.1742 52.3313 14.0651C52.2206 13.9561 52.1645 13.7815 52.163 13.5415L52.1519 11.7566C52.1505 11.5166 52.2044 11.3411 52.3137 11.2302C52.423 11.1193 52.5976 11.0628 52.8376 11.0608L54.1726 11.0497L54.1431 6.30975L52.8082 6.3209C52.5682 6.32291 52.3928 6.26937 52.2821 6.16029C52.1715 6.05121 52.1154 5.87668 52.1139 5.63668L52.1026 3.82172C52.1011 3.58172 52.155 3.40626 52.2643 3.29535C52.3736 3.18443 52.5483 3.12797 52.7883 3.12596L59.1781 3.07256C59.4181 3.07056 59.5934 3.1241 59.7041 3.23317C59.8148 3.34225 59.8708 3.51679 59.8723 3.75679L59.8836 5.57175C59.8851 5.81175 59.8312 5.9872 59.7219 6.09812C59.6126 6.20904 59.4379 6.2655 59.1979 6.2675L57.893 6.27841L57.9225 11.0183L59.2274 11.0074C59.4674 11.0054 59.6427 11.059 59.7534 11.168C59.8641 11.2771 59.9202 11.4516 59.9217 11.6916L59.9328 13.4766C59.9343 13.7166 59.8804 13.8921 59.771 14.003C59.6617 14.1139 59.4871 14.1704 59.2471 14.1724L52.8573 14.2258ZM52.8564 14.0758L59.2462 14.0224C59.4362 14.0208 59.5709 13.9796 59.6504 13.899C59.7398 13.8082 59.784 13.6679 59.7828 13.4779L59.7717 11.6929C59.7705 11.5029 59.7247 11.3683 59.6342 11.289C59.5536 11.1997 59.4183 11.1558 59.2283 11.1574L57.7734 11.1696L57.742 6.12966L59.197 6.11751C59.387 6.11592 59.5217 6.07479 59.6012 5.99412C59.6907 5.90337 59.7348 5.763 59.7336 5.573L59.7223 3.75804C59.7212 3.56804 59.6753 3.43342 59.5848 3.35417C59.5043 3.26485 59.369 3.22097 59.179 3.22256L52.7892 3.27596C52.5992 3.27755 52.4595 3.32372 52.3701 3.41447C52.2906 3.49513 52.2514 3.63047 52.2526 3.82046L52.2639 5.63543C52.2651 5.82542 52.3059 5.96509 52.3865 6.05442C52.477 6.13366 52.6172 6.17249 52.8072 6.1709L54.2922 6.15849L54.3235 11.1984L52.8386 11.2108C52.6486 11.2124 52.5089 11.2586 52.4194 11.3493C52.3399 11.43 52.3008 11.5653 52.3019 11.7553L52.313 13.5403C52.3142 13.7303 52.3551 13.8699 52.4356 13.9593C52.5261 14.0385 52.6664 14.0773 52.8564 14.0758ZM58.4278 12.6792L53.658 12.719L53.657 12.569L55.9819 12.5496L55.9334 4.74973L53.6085 4.76916L53.6076 4.61916L58.3774 4.5793L58.3784 4.7293L56.0834 4.74848L56.1319 12.5483L58.4269 12.5292L58.4278 12.6792Z" fill="url(#paint3_linear_10_2)"/>
<path d="M73.1765 9.66726C73.0003 9.63054 72.8791 9.5645 72.8131 9.46913C72.747 9.37376 72.6507 9.18027 72.5241 8.88867L71.16 5.75837C71.1166 5.64731 71.058 5.5688 70.9843 5.52284C70.9121 5.467 70.8368 5.43091 70.7585 5.4146L70.5089 5.36259C70.3816 5.33608 70.2776 5.35521 70.1968 5.41999C70.1273 5.47692 70.0803 5.58445 70.0558 5.74256L68.8861 13.2874L69.033 13.318L70.2027 5.77315C70.2149 5.6941 70.2403 5.62798 70.2789 5.57481C70.319 5.51175 70.388 5.49043 70.4859 5.51082L70.7061 5.55671C70.7747 5.57099 70.8319 5.59311 70.8778 5.62307C70.9334 5.65507 70.983 5.7266 71.0264 5.83765L72.3951 8.93831C72.53 9.24183 72.6338 9.45218 72.7066 9.56936C72.7891 9.68857 72.9381 9.77061 73.1535 9.81548C73.3689 9.86035 73.5283 9.84256 73.6317 9.76209C73.7449 9.68367 73.9103 9.52941 74.1279 9.29931L76.3423 6.94512C76.4163 6.85854 76.4794 6.81047 76.5314 6.8009C76.5834 6.79133 76.6437 6.79369 76.7122 6.80797L76.9325 6.85386C77.0304 6.87425 77.0886 6.9221 77.1073 6.99739C77.1372 7.06484 77.1461 7.13809 77.1338 7.21715L75.9642 14.762L76.111 14.7926L77.2807 7.24774C77.3052 7.08963 77.2886 6.96885 77.2308 6.8854C77.1843 6.7941 77.0925 6.73418 76.9554 6.70563L76.7058 6.65362C76.6275 6.6373 76.5461 6.64075 76.4617 6.66396C76.3885 6.67933 76.3149 6.73031 76.2409 6.81689L74.0219 9.20072C73.8157 9.42298 73.6672 9.56547 73.5767 9.62821C73.4861 9.69095 73.3527 9.70397 73.1765 9.66726ZM69.8394 14.8632L67.6514 14.4073C67.4654 14.3686 67.3344 14.3005 67.2586 14.2031C67.1941 14.0978 67.1763 13.9513 67.2055 13.7636L68.6946 4.15832C68.7237 3.97057 68.7835 3.84532 68.8741 3.78258C68.976 3.712 69.1199 3.69608 69.3059 3.73483L71.6702 4.22738C71.8268 4.26002 71.9487 4.32112 72.0359 4.41068C72.1329 4.50229 72.2131 4.63633 72.2767 4.8128L73.2238 7.50427C73.2589 7.60341 73.2881 7.6758 73.3114 7.72145C73.3444 7.76913 73.3903 7.79909 73.449 7.81133L73.5812 7.83886C73.6399 7.8511 73.6871 7.84051 73.7226 7.80711C73.7678 7.77574 73.8219 7.72068 73.8846 7.64194L75.5661 5.49808C75.6787 5.35833 75.7894 5.26406 75.898 5.21528C76.0164 5.16854 76.1539 5.16149 76.3106 5.19412L78.6895 5.68973C78.8755 5.72848 79.0007 5.80048 79.0653 5.90574C79.1411 6.00315 79.1645 6.14573 79.1354 6.33349L77.6463 15.9387C77.6172 16.1265 77.5517 16.2557 77.4498 16.3262C77.3592 16.389 77.2209 16.401 77.0349 16.3622L74.7735 15.8911C74.5875 15.8523 74.4565 15.7843 74.3807 15.6869C74.3161 15.5816 74.2984 15.4351 74.3275 15.2473L75.1364 10.0297L74.0196 11.4649C73.9054 11.6145 73.7786 11.7156 73.639 11.7681C73.5108 11.8128 73.3537 11.8158 73.1677 11.7771L72.5803 11.6547C72.3943 11.6159 72.2431 11.5487 72.1265 11.453C72.0213 11.3495 71.9377 11.2046 71.8756 11.0182L71.2597 9.22202L70.4508 14.4397C70.4217 14.6274 70.3562 14.7566 70.2543 14.8272C70.1637 14.8899 70.0254 14.9019 69.8394 14.8632Z" fill="url(#paint4_linear_10_2)"/>
<path d="M89.3879 20.7912L85.0546 18.8703C84.8809 18.7933 84.7654 18.6986 84.7082 18.5861C84.6633 18.4682 84.6706 18.3191 84.7301 18.1386L85.2799 16.472C85.3394 16.2915 85.4183 16.1795 85.5165 16.136C85.6269 16.087 85.769 16.101 85.9427 16.178L89.6315 17.8132C89.7504 17.8659 89.8498 17.8664 89.9297 17.8148C90.0219 17.7577 90.0867 17.6721 90.1243 17.5582C90.1776 17.3967 90.1848 17.2638 90.1458 17.1595C90.116 17.0592 90.0433 16.978 89.9276 16.9158L87.9693 15.7048C87.3607 15.3262 86.9162 14.8788 86.6359 14.3626C86.3647 13.8505 86.3607 13.1956 86.6238 12.3979L87.1172 10.9022C87.3835 10.095 87.8386 9.58916 88.4824 9.38471C89.1293 9.17076 89.8961 9.26034 90.7829 9.65345L94.6225 11.3555C94.7962 11.4325 94.9055 11.53 94.9505 11.6479C95.0077 11.7603 95.0066 11.9068 94.947 12.0872L94.3878 13.7823C94.3283 13.9628 94.2433 14.0775 94.1328 14.1265C94.0346 14.17 93.8987 14.1533 93.725 14.0763L90.5299 12.6599C90.411 12.6072 90.3055 12.6094 90.2133 12.6665C90.1243 12.7142 90.0594 12.7997 90.0186 12.9231C89.9779 13.0466 89.9755 13.1652 90.0113 13.2791C90.0471 13.3929 90.1228 13.4809 90.2385 13.5431L92.1878 14.7338C92.7964 15.1124 93.2409 15.5598 93.5212 16.076C93.8015 16.5921 93.8101 17.249 93.5469 18.0467L93.0535 19.5425C92.7873 20.3497 92.3261 20.8582 91.67 21.0681C91.0262 21.2726 90.2655 21.1803 89.3879 20.7912ZM93.4591 12.3093L90.4148 10.9598C89.9943 10.7734 89.6153 10.7469 89.2779 10.8803C88.9436 11.0043 88.7138 11.2562 88.5885 11.636L88.2031 12.8041C88.0747 13.1935 88.0586 13.4965 88.1547 13.7133C88.2631 13.9247 88.4283 14.1068 88.6504 14.2596L91.3418 16.1548C91.5789 16.3253 91.7425 16.5284 91.8324 16.7642C91.9345 16.9945 91.912 17.3328 91.7647 17.7792L91.4922 18.6054C91.3669 18.9853 91.1355 19.2419 90.7981 19.3753C90.4729 19.5033 90.1001 19.4741 89.6795 19.2877L86.265 17.7741L86.218 17.9165L89.6326 19.4302C90.0988 19.6368 90.5129 19.668 90.8749 19.5237C91.24 19.3699 91.4915 19.084 91.6293 18.6662L91.9019 17.84C92.0648 17.3462 92.0861 16.9637 91.9659 16.6928C91.8549 16.4258 91.6716 16.2031 91.4162 16.0245L88.7248 14.1293C88.5271 13.9981 88.3861 13.8377 88.302 13.648C88.2179 13.4583 88.2306 13.1973 88.3403 12.8649L88.7256 11.6968C88.8352 11.3644 89.0404 11.1397 89.341 11.0226C89.6416 10.9055 89.9839 10.932 90.3678 11.1022L93.4121 12.4518L93.4591 12.3093Z" fill="url(#paint5_linear_10_2)"/>
<path d="M102 22.4576C102.125 22.2181 102.257 22.0078 102.396 21.8268C102.543 21.6514 102.691 21.4951 102.841 21.3579L104.764 19.7263C104.961 19.5619 105.148 19.4387 105.325 19.3567C105.507 19.2659 105.72 19.3064 105.966 19.4784L107.17 20.3212C107.4 20.4817 107.522 20.6762 107.537 20.9046C107.557 21.1242 107.552 21.3808 107.522 21.6745L107.241 24.4365C107.206 24.654 107.152 24.8763 107.078 25.1032C107.013 25.3359 106.918 25.572 106.793 25.8114L106.579 26.2239L101.785 22.87L102 22.4576ZM105.401 21.0795L103.77 22.6976L105.7 24.0477L106.175 21.6213C106.184 21.5185 106.177 21.4351 106.154 21.3709C106.14 21.3125 106.108 21.2661 106.059 21.2317L105.752 21.0167C105.703 20.9823 105.648 20.9685 105.589 20.9753C105.538 20.9879 105.475 21.0226 105.401 21.0795ZM105.318 28.6453L105.441 28.7313L106.916 25.8974C107.046 25.6491 107.143 25.4086 107.208 25.1759C107.286 24.9401 107.343 24.7017 107.379 24.4607L107.66 21.6987C107.696 21.3727 107.7 21.0853 107.673 20.8365C107.655 20.5934 107.51 20.3773 107.24 20.1881L106.035 19.3454C105.757 19.1504 105.516 19.0971 105.314 19.1854C105.111 19.2736 104.9 19.4104 104.681 19.5957L102.758 21.2272C102.591 21.3765 102.432 21.5433 102.28 21.7275C102.141 21.9085 102.007 22.1232 101.877 22.3716L100.402 25.2054L100.525 25.2914L101.716 23.0031L106.509 26.3569L105.318 28.6453ZM101.416 26.8956C101.329 27.0642 101.227 27.1625 101.112 27.1908C101.009 27.2159 100.88 27.1739 100.725 27.065L98.918 25.8009C98.7624 25.6919 98.6661 25.5762 98.6293 25.4536C98.6054 25.3279 98.6372 25.1808 98.725 25.0123L100.554 21.4999C100.692 21.2339 100.889 20.9536 101.142 20.6593C101.404 20.3707 101.737 20.0532 102.142 19.7066L104.783 17.4347C104.911 17.3183 105.042 17.259 105.178 17.2568C105.321 17.2604 105.475 17.3195 105.639 17.4342L108.945 19.7475C109.1 19.8564 109.209 19.9808 109.27 20.1205C109.34 20.266 109.36 20.4313 109.331 20.6165L108.827 24.3848C108.751 24.9607 108.66 25.4474 108.553 25.8449C108.455 26.2481 108.337 26.5828 108.198 26.8489L106.369 30.3613C106.282 30.5298 106.18 30.6282 106.065 30.6564C105.962 30.6815 105.833 30.6396 105.678 30.5307L103.822 29.2321C103.658 29.1174 103.553 28.996 103.508 28.8677C103.476 28.7363 103.504 28.5863 103.592 28.4178L104.562 26.5551L102.386 25.033L101.416 26.8956Z" fill="url(#paint6_linear_10_2)"/>
<defs>
<linearGradient id="paint0_linear_10_2" x1="8.19505" y1="18.2708" x2="8.19505" y2="31.9151" gradientUnits="userSpaceOnUse">
<stop stop-color="#000080"/>
<stop offset="0.9999" stop-color="#FF7F50"/>
<stop offset="1" stop-color="#8C92AC"/>
</linearGradient>
<linearGradient id="paint1_linear_10_2" x1="23.7337" y1="9.98102" x2="23.7337" y2="22.3133" gradientUnits="userSpaceOnUse">
<stop stop-color="#000080"/>
<stop offset="0.9999" stop-color="#FF7F50"/>
<stop offset="1" stop-color="#8C92AC"/>
</linearGradient>
<linearGradient id="paint2_linear_10_2" x1="39.405" y1="4.64536" x2="39.405" y2="17.0994" gradientUnits="userSpaceOnUse">
<stop stop-color="#000080"/>
<stop offset="0.247917" stop-color="#000080"/>
<stop offset="0.9999" stop-color="#FF7F50"/>
<stop offset="1" stop-color="#8C92AC"/>
</linearGradient>
<linearGradient id="paint3_linear_10_2" x1="56.0177" y1="3.07251" x2="56.0177" y2="14.2258" gradientUnits="userSpaceOnUse">
<stop stop-color="#000080"/>
<stop offset="0.9999" stop-color="#FF7F50"/>
<stop offset="1" stop-color="#8C92AC"/>
</linearGradient>
<linearGradient id="paint4_linear_10_2" x1="73.1697" y1="3.71423" x2="73.1697" y2="16.3844" gradientUnits="userSpaceOnUse">
<stop stop-color="#000080"/>
<stop offset="0.9999" stop-color="#FF7F50"/>
<stop offset="1" stop-color="#8C92AC"/>
</linearGradient>
<linearGradient id="paint5_linear_10_2" x1="89.8359" y1="9.27161" x2="89.8359" y2="21.1738" gradientUnits="userSpaceOnUse">
<stop stop-color="#000080"/>
<stop offset="0.9999" stop-color="#FF7F50"/>
<stop offset="1" stop-color="#8C92AC"/>
</linearGradient>
<linearGradient id="paint6_linear_10_2" x1="103.983" y1="17.2568" x2="103.983" y2="30.6635" gradientUnits="userSpaceOnUse">
<stop stop-color="#000080"/>
<stop offset="0.9999" stop-color="#FF7F50"/>
<stop offset="1" stop-color="#8C92AC"/>
</linearGradient>
</defs>
</svg>
