<svg width="134" height="54" viewBox="0 0 134 54" fill="none" xmlns="http://www.w3.org/2000/svg">
<path d="M16.1922 32.8555C16.4359 33.3847 16.589 33.9229 16.6513 34.4701C16.7182 34.9979 16.6494 35.5546 16.4448 36.1402C16.2448 36.7065 15.8865 37.3117 15.3699 37.9557C14.8533 38.5997 14.133 39.2871 13.2091 40.0179C12.2851 40.7486 11.4853 41.2635 10.8097 41.5624C10.1342 41.8612 9.5536 41.9986 9.06809 41.9745C8.58721 41.9311 8.17918 41.7515 7.844 41.4358C7.51345 41.1008 7.22629 40.6687 6.9825 40.1395L3.04743 31.5973C2.94674 31.3787 2.91493 31.1919 2.95201 31.037C2.99373 30.8628 3.10897 30.701 3.29773 30.5517L5.6374 28.7012C5.82616 28.5519 5.98413 28.4976 6.11131 28.5383C6.24312 28.5596 6.35938 28.6796 6.46007 28.8982L10.0851 36.7673C10.1911 36.9974 10.3557 37.1341 10.5789 37.1773C10.7968 37.209 11.1641 37.0205 11.6807 36.6119C12.2073 36.1955 12.5106 35.8535 12.5907 35.5861C12.6656 35.3072 12.65 35.0527 12.544 34.8226L8.91896 26.9534C8.81827 26.7348 8.78646 26.5481 8.82354 26.3932C8.86526 26.2189 8.9805 26.0571 9.16926 25.9078L11.4344 24.1163C11.6232 23.967 11.7812 23.9127 11.9083 23.9534C12.0401 23.9747 12.1564 24.0947 12.2571 24.3132L16.1922 32.8555ZM5.11597 31.2326L8.43097 38.4288C8.74895 39.1191 9.2123 39.5217 9.82103 39.6367C10.4344 39.7324 11.3223 39.3205 12.4846 38.4012C13.647 37.4819 14.3388 36.6443 14.56 35.8886C14.7759 35.1215 14.7248 34.3927 14.4068 33.7024L11.0918 26.5063L10.9428 26.6241L14.2578 33.8203C14.5546 34.4646 14.597 35.1452 14.3851 35.8621C14.1679 36.5676 13.5079 37.3564 12.4051 38.2286C11.3024 39.1008 10.4622 39.4985 9.8846 39.4216C9.31165 39.3254 8.87678 38.9552 8.57999 38.3109L5.26499 31.1148L5.11597 31.2326Z" fill="white"/>
<path d="M33.3773 26.2357L29.2326 28.3125C27.817 29.0218 26.6751 29.2455 25.8068 28.9837C24.9499 28.7162 24.337 27.9501 23.9679 26.6856L22.3124 21.0132C21.9434 19.7486 22.0099 18.6421 22.5119 17.6937C23.0217 16.7274 23.9844 15.8896 25.4 15.1803L29.5448 13.1035C29.7599 12.9957 29.9288 12.9738 30.0513 13.0378C30.1816 13.084 30.2805 13.2227 30.3479 13.4537L30.992 15.6606C31.0594 15.8916 31.0582 16.0874 30.9882 16.2479C30.926 16.3906 30.7873 16.5158 30.5721 16.6236L27.1578 18.3345C26.8067 18.5104 26.5693 18.7199 26.4456 18.9631C26.3183 19.1941 26.299 19.4617 26.3877 19.7656L27.6546 24.1065C27.7433 24.4105 27.8939 24.5929 28.1063 24.6537C28.3152 24.7024 28.5952 24.6387 28.9463 24.4628L32.3606 22.752C32.5758 22.6442 32.7447 22.6223 32.8672 22.6863C32.9975 22.7325 33.0964 22.8711 33.1638 23.1022L33.7972 25.2726C33.8647 25.5037 33.8634 25.6994 33.7934 25.8599C33.7312 26.0026 33.5925 26.1278 33.3773 26.2357ZM31.9108 24.8799L29.074 26.3013C28.0548 26.812 27.3274 26.9883 26.8918 26.8303C26.4563 26.6722 26.1232 26.198 25.8925 25.4076L24.4021 20.3007C24.1678 19.4981 24.1784 18.8448 24.4336 18.3406C24.6853 17.8242 25.3094 17.3163 26.306 16.817L29.1428 15.3955L29.0896 15.2132L26.2528 16.6346C25.1656 17.1793 24.4941 17.7249 24.2381 18.2712C23.9822 18.8176 23.9802 19.5225 24.2322 20.3858L25.7226 25.4927C25.9675 26.3317 26.3187 26.8457 26.7762 27.0345C27.245 27.2177 28.0287 27.0341 29.1272 26.4837L31.964 25.0623L31.9108 24.8799Z" fill="white"/>
<path d="M43.4064 20.051L43.5909 20.0058L42.8789 15.0214L49.9649 13.2835L50.6769 18.2679L50.8615 18.2227L49.4106 8.06578L49.2261 8.11103L49.9381 13.0954L42.8521 14.8333L42.1401 9.84886L41.9555 9.89411L43.4064 20.051ZM45.1798 21.3682L42.3196 22.0697C42.0858 22.127 41.9064 22.1191 41.7814 22.0459C41.6668 21.9572 41.5926 21.7937 41.5585 21.5555L39.8175 9.36719C39.7835 9.12894 39.8085 8.94759 39.8926 8.82314C39.9872 8.68313 40.1514 8.58447 40.3851 8.52714L43.2453 7.82567C43.4791 7.76835 43.6532 7.78405 43.7678 7.87277C43.8928 7.94593 43.9723 8.10163 44.0064 8.33988L44.5894 12.4214L47.6711 11.6657L47.0881 7.58411C47.054 7.34586 47.0791 7.16451 47.1631 7.04006C47.2577 6.90005 47.4219 6.80138 47.6556 6.74406L50.5159 6.04259C50.7496 5.98527 50.9238 6.00096 51.0383 6.08968C51.1634 6.16284 51.2429 6.31855 51.2769 6.5568L53.0179 18.7451C53.052 18.9833 53.0217 19.1725 52.9271 19.3125C52.843 19.4369 52.6841 19.5278 52.4503 19.5851L49.5901 20.2866C49.3564 20.3439 49.177 20.336 49.0519 20.2628C48.9374 20.1741 48.8631 20.0106 48.8291 19.7724L48.2326 15.5968L45.1509 16.3525L45.7474 20.5282C45.7814 20.7664 45.7511 20.9555 45.6565 21.0955C45.5725 21.22 45.4135 21.3109 45.1798 21.3682Z" fill="white"/>
<path d="M61.7231 18.2886C61.4191 18.2915 61.197 18.2239 61.0569 18.0859C60.9169 17.9479 60.846 17.7269 60.8443 17.4229L60.8319 15.1619C60.8302 14.8579 60.8986 14.6356 61.0372 14.4949C61.1758 14.3543 61.397 14.2825 61.701 14.2797L63.3919 14.2637L63.3589 8.25977L61.668 8.27574C61.364 8.27861 61.142 8.21104 61.0019 8.07303C60.8618 7.93501 60.7909 7.714 60.7892 7.41001L60.7766 5.11104C60.7749 4.80705 60.8433 4.58473 60.9819 4.44408C61.1205 4.30343 61.3417 4.23167 61.6457 4.2288L69.7394 4.15235C70.0433 4.14948 70.2654 4.21705 70.4055 4.35507C70.5456 4.49308 70.6165 4.71409 70.6181 5.01808L70.6308 7.31705C70.6324 7.62104 70.564 7.84336 70.4254 7.98401C70.2869 8.12466 70.0656 8.19642 69.7616 8.19929L68.1087 8.2149L68.1417 14.2188L69.7947 14.2032C70.0986 14.2003 70.3207 14.2679 70.4608 14.4059C70.6009 14.5439 70.6717 14.7649 70.6734 15.0689L70.6859 17.3299C70.6875 17.6339 70.6191 17.8562 70.4805 17.9969C70.342 18.1375 70.1207 18.2093 69.8167 18.2121L61.7231 18.2886ZM61.722 18.0986L69.8157 18.0221C70.0563 18.0199 70.227 17.9676 70.3278 17.8653C70.4412 17.7502 70.4972 17.5724 70.4959 17.3317L70.4834 15.0707C70.4821 14.8301 70.4242 14.6596 70.3096 14.5593C70.2077 14.4463 70.0364 14.3909 69.7957 14.3932L67.9528 14.4106L67.9177 8.0267L69.7606 8.00929C70.0012 8.00702 70.1719 7.95474 70.2727 7.85245C70.3861 7.73737 70.4421 7.5595 70.4408 7.31884L70.4281 5.01988C70.4268 4.77921 70.3689 4.60875 70.2543 4.5085C70.1524 4.39546 69.9811 4.34007 69.7404 4.34235L61.6468 4.4188C61.4061 4.42107 61.2291 4.47975 61.1157 4.59482C61.015 4.69711 60.9652 4.86859 60.9666 5.10925L60.9792 7.40821C60.9805 7.64888 61.0322 7.82573 61.1341 7.93877C61.2487 8.03903 61.4263 8.08802 61.6669 8.08574L63.5479 8.06798L63.583 14.4519L61.7021 14.4696C61.4614 14.4719 61.2844 14.5306 61.171 14.6457C61.0703 14.748 61.0205 14.9194 61.0219 15.1601L61.0343 17.4211C61.0356 17.6617 61.0873 17.8386 61.1892 17.9516C61.3038 18.0519 61.4814 18.1009 61.722 18.0986ZM68.7803 16.3219L62.7386 16.3789L62.7375 16.1889L65.6824 16.1611L65.628 6.28126L62.6832 6.30908L62.6821 6.11908L68.7239 6.06201L68.7249 6.25201L65.818 6.27947L65.8724 16.1593L68.7793 16.1319L68.7803 16.3219Z" fill="white"/>
<path d="M85.8653 12.7505C85.6434 12.6982 85.49 12.6103 85.4051 12.4866C85.3202 12.363 85.1954 12.1134 85.0305 11.7378L83.2545 7.70522C83.1977 7.5623 83.1226 7.46041 83.0291 7.39954C82.9374 7.32611 82.8422 7.27779 82.7435 7.25456L82.4291 7.18052C82.2688 7.14278 82.1387 7.16394 82.0386 7.24401C81.9526 7.31444 81.8958 7.45004 81.8682 7.65083L80.5541 17.2321L80.7391 17.2757L82.0532 7.69438C82.067 7.59399 82.0975 7.5105 82.1448 7.44391C82.1939 7.36478 82.28 7.33973 82.4033 7.36876L82.6807 7.43409C82.767 7.45441 82.8393 7.48438 82.8975 7.524C82.968 7.56651 83.0317 7.65923 83.0884 7.80214L84.8697 11.797C85.0451 12.1881 85.1797 12.4595 85.2735 12.6111C85.3796 12.7656 85.5682 12.8748 85.8395 12.9387C86.1107 13.0026 86.3104 12.9848 86.4386 12.8855C86.5791 12.789 86.7836 12.5975 87.052 12.3109L89.7833 9.37868C89.8745 9.27061 89.9526 9.21128 90.0177 9.2007C90.0828 9.19012 90.1585 9.19499 90.2448 9.21531L90.5222 9.28064C90.6455 9.30967 90.7197 9.37247 90.7446 9.46902C90.7836 9.55593 90.7962 9.64958 90.7824 9.74997L89.4683 19.3313L89.6532 19.3748L90.9674 9.79352C90.9949 9.59274 90.9715 9.43826 90.8973 9.33009C90.8371 9.21228 90.7207 9.13305 90.5481 9.0924L90.2337 9.01836C90.135 8.99514 90.0329 8.99701 89.9274 9.02398C89.836 9.0413 89.7446 9.104 89.6534 9.21207L86.9169 12.182C86.6626 12.4589 86.4792 12.6359 86.3668 12.7131C86.2544 12.7903 86.0872 12.8027 85.8653 12.7505ZM81.7828 19.2703L79.0272 18.6214C78.7929 18.5662 78.6272 18.4754 78.53 18.3489C78.4468 18.2127 78.4216 18.0254 78.4543 17.787L80.1273 5.58917C80.16 5.35074 80.2326 5.19294 80.345 5.11577C80.4714 5.02896 80.6518 5.01313 80.8861 5.0683L83.8636 5.76946C84.0609 5.81592 84.2151 5.89758 84.3264 6.01446C84.45 6.13424 84.5535 6.30759 84.6369 6.53451L85.8805 9.99474C85.9267 10.1222 85.9648 10.2154 85.9949 10.2743C86.0374 10.3361 86.0956 10.3757 86.1695 10.3931L86.336 10.4323C86.41 10.4498 86.4689 10.4377 86.5128 10.3962C86.569 10.3576 86.6356 10.2891 86.7128 10.1907L88.7796 7.51005C88.9181 7.33539 89.055 7.21866 89.1903 7.15984C89.338 7.10394 89.5105 7.09921 89.7078 7.14567L92.7038 7.85119C92.9381 7.90635 93.0968 8.00202 93.1799 8.13819C93.2771 8.26471 93.3094 8.44719 93.2767 8.68563L91.6037 20.8834C91.5709 21.1219 91.4914 21.2845 91.3649 21.3713C91.2525 21.4485 91.0792 21.4595 90.8449 21.4043L87.9968 20.7336C87.7626 20.6785 87.5968 20.5876 87.4996 20.4611C87.4165 20.3249 87.3913 20.1376 87.424 19.8992L88.3328 13.2732L86.9602 15.0681C86.82 15.2553 86.6628 15.3802 86.4888 15.4428C86.3288 15.4958 86.1316 15.4948 85.8974 15.4396L85.1576 15.2654C84.9234 15.2102 84.7321 15.1199 84.5839 14.9943C84.4497 14.859 84.3418 14.6717 84.2601 14.4322L83.4503 12.1235L82.5415 18.7494C82.5088 18.9879 82.4292 19.1505 82.3028 19.2373C82.1904 19.3145 82.017 19.3255 81.7828 19.2703Z" fill="white"/>
<path d="M104.63 27.3555L99.2623 24.6658C99.0471 24.558 98.9028 24.4299 98.8292 24.2816C98.7706 24.1268 98.7749 23.9338 98.8424 23.7028L99.4652 21.5688C99.5326 21.3378 99.6258 21.1963 99.7448 21.1445C99.8786 21.0861 100.053 21.1108 100.268 21.2186L104.838 23.5083C104.985 23.582 105.107 23.5873 105.203 23.5241C105.314 23.4543 105.391 23.3465 105.434 23.2006C105.494 22.9939 105.499 22.8221 105.448 22.6851C105.408 22.5537 105.317 22.4451 105.173 22.3592L102.737 20.6994C101.98 20.1806 101.421 19.5804 101.062 18.8986C100.714 18.2226 100.689 17.3738 100.988 16.3524L101.546 14.4373C101.848 13.4038 102.39 12.7695 103.173 12.5344C103.959 12.2871 104.901 12.4387 106 12.9891L110.756 15.3724C110.971 15.4802 111.108 15.6115 111.167 15.7664C111.24 15.9147 111.243 16.1044 111.176 16.3354L110.542 18.5059C110.475 18.7369 110.374 18.8816 110.24 18.94C110.121 18.9918 109.954 18.9639 109.739 18.8561L105.781 16.8729C105.634 16.7991 105.505 16.7971 105.394 16.8668C105.286 16.9243 105.209 17.0321 105.163 17.1902C105.117 17.3483 105.117 17.5019 105.165 17.6511C105.212 17.8002 105.308 17.9178 105.451 18.0037L107.876 19.6367C108.633 20.1555 109.191 20.7558 109.55 21.4375C109.91 22.1192 109.94 22.9708 109.642 23.9922L109.083 25.9073C108.782 26.9409 108.232 27.5784 107.435 27.82C106.652 28.0551 105.717 27.9002 104.63 27.3555ZM109.36 16.5543L105.588 14.6647C105.068 14.4037 104.602 14.3518 104.193 14.5091C103.787 14.6542 103.513 14.9699 103.371 15.4563L102.935 16.9519C102.789 17.4504 102.779 17.8424 102.903 18.1277C103.043 18.4066 103.251 18.6502 103.527 18.8585L106.883 21.4387C107.178 21.6706 107.385 21.9413 107.502 22.251C107.634 22.5541 107.617 22.9915 107.45 23.563L107.142 24.6208C107 25.1072 106.724 25.429 106.315 25.5863C105.92 25.7371 105.463 25.6819 104.942 25.4209L100.712 23.3015L100.659 23.4839L104.888 25.6033C105.466 25.8927 105.974 25.9523 106.413 25.7821C106.856 25.5997 107.155 25.241 107.312 24.706L107.62 23.6481C107.805 23.0158 107.819 22.5213 107.664 22.1646C107.52 21.8136 107.288 21.5165 106.97 21.2734L103.614 18.6931C103.368 18.514 103.191 18.2996 103.082 18.0499C102.973 17.8002 102.981 17.4626 103.105 17.037L103.541 15.5414C103.665 15.1158 103.91 14.8341 104.275 14.6963C104.639 14.5585 105.06 14.6088 105.535 14.8471L109.306 16.7367L109.36 16.5543Z" fill="white"/>
<path d="M118.917 29.7311C119.06 29.4204 119.212 29.1485 119.374 28.9154C119.546 28.69 119.719 28.4898 119.895 28.3147L122.152 26.2389C122.384 26.0299 122.605 25.8747 122.814 25.7734C123.029 25.6606 123.285 25.7221 123.583 25.9578L125.043 27.1129C125.322 27.3329 125.473 27.5936 125.496 27.895C125.525 28.1849 125.526 28.5226 125.497 28.9081L125.23 32.5343C125.193 32.8194 125.134 33.1099 125.052 33.406C124.98 33.7099 124.872 34.0171 124.729 34.3278L124.482 34.8627L118.671 30.266L118.917 29.7311ZM122.947 28.0447L121.038 30.1138L123.378 31.9643L123.886 28.7872C123.894 28.6523 123.883 28.5421 123.855 28.4568C123.836 28.3794 123.797 28.3171 123.738 28.2699L123.365 27.9753C123.306 27.9281 123.24 27.9079 123.169 27.9146C123.109 27.9292 123.034 27.9726 122.947 28.0447ZM123.036 38.0035L123.185 38.1214L124.878 34.4456C125.026 34.1235 125.137 33.8105 125.209 33.5066C125.296 33.199 125.359 32.8873 125.396 32.5713L125.663 28.9452C125.698 28.5173 125.696 28.139 125.657 27.8104C125.629 27.4897 125.451 27.1996 125.123 26.9403L123.662 25.7853C123.325 25.5181 123.036 25.4388 122.796 25.5474C122.556 25.656 122.308 25.8281 122.05 26.0638L119.792 28.1396C119.596 28.3299 119.41 28.5434 119.233 28.7802C119.071 29.0134 118.916 29.2911 118.768 29.6132L117.075 33.2889L117.224 33.4068L118.591 30.4386L124.403 35.0353L123.036 38.0035ZM118.329 35.5527C118.229 35.7713 118.11 35.897 117.973 35.9298C117.851 35.959 117.695 35.8989 117.507 35.7496L115.316 34.017C115.127 33.8677 115.009 33.7117 114.962 33.5489C114.931 33.3825 114.965 33.19 115.066 32.9715L117.164 28.4156C117.323 28.0705 117.551 27.7089 117.847 27.331C118.153 26.9608 118.543 26.5552 119.018 26.1142L122.119 23.2222C122.268 23.0738 122.424 23.0007 122.586 23.003C122.757 23.0131 122.942 23.0967 123.141 23.2539L127.15 26.4244C127.338 26.5737 127.471 26.7415 127.548 26.9278C127.635 27.122 127.663 27.3405 127.633 27.5832L127.124 32.526C127.048 33.2814 126.95 33.9188 126.833 34.4382C126.726 34.9654 126.593 35.4016 126.434 35.7468L124.335 40.3026C124.234 40.5212 124.115 40.6469 123.978 40.6797C123.856 40.7089 123.701 40.6488 123.512 40.4995L121.262 38.7198C121.063 38.5626 120.936 38.3988 120.879 38.2281C120.837 38.0539 120.866 37.8575 120.967 37.6389L122.08 35.2229L119.442 33.1367L118.329 35.5527Z" fill="white"/>
</svg>
