<svg width="276" height="85" viewBox="0 0 276 85" fill="none" xmlns="http://www.w3.org/2000/svg">
<path d="M39.0855 55.5883C39.7194 56.6385 40.1383 57.6938 40.3424 58.7543C40.5555 59.7781 40.4485 60.8394 40.0215 61.9382C39.6036 63.0003 38.8131 64.116 37.65 65.2852C36.4869 66.4545 34.8437 67.6799 32.7205 68.9615C30.5973 70.2431 28.7475 71.1261 27.171 71.6104C25.5945 72.0948 24.2275 72.2814 23.0702 72.1701C21.9219 72.0222 20.933 71.6224 20.1035 70.9706C19.2831 70.2822 18.5559 69.4129 17.922 68.3627L7.69006 51.4114C7.42823 50.9776 7.33352 50.6143 7.40592 50.3214C7.48736 49.9919 7.74497 49.6963 8.17874 49.4344L13.5552 46.1892C13.989 45.9273 14.3592 45.844 14.6659 45.9393C14.9816 45.9979 15.2704 46.2441 15.5322 46.6778L24.958 62.2936C25.2336 62.7502 25.6391 63.035 26.1745 63.1479C26.696 63.238 27.5504 62.9247 28.7376 62.2081C29.9476 61.4778 30.6342 60.8608 30.7975 60.3574C30.9471 59.831 30.884 59.3396 30.6084 58.883L21.1826 43.2672C20.9208 42.8334 20.8261 42.4701 20.8985 42.1772C20.9799 41.8477 21.2375 41.5521 21.6713 41.2902L26.8766 38.1483C27.3103 37.8865 27.6806 37.8032 27.9872 37.8984C28.3029 37.957 28.5917 38.2032 28.8535 38.637L39.0855 55.5883ZM12.5732 50.9869L21.1929 65.2671C22.0197 66.6369 23.1629 67.4731 24.6226 67.7756C26.0914 68.0415 28.1613 67.3684 30.8324 65.7561C33.5035 64.1437 35.0636 62.6258 35.5126 61.2024C35.9478 59.756 35.752 58.348 34.9252 56.9782L26.3055 42.698L25.9631 42.9047L34.5827 57.1849C35.3544 58.4634 35.5248 59.7777 35.0939 61.128C34.6493 62.4554 33.1598 63.884 30.6257 65.4136C28.0916 66.9432 26.1336 67.5955 24.7519 67.3705C23.3792 67.1089 22.307 66.3389 21.5353 65.0604L12.9157 50.7802L12.5732 50.9869Z" fill="white"/>
<path d="M73.1581 49.0333L64.0419 52.5194C60.9285 53.71 58.374 53.9731 56.3784 53.3088C54.4077 52.6349 52.927 51.0027 51.9364 48.4124L47.4931 36.793C46.5025 34.2026 46.5163 31.9989 47.5345 30.1821C48.5681 28.3308 50.6417 26.8098 53.7551 25.6192L62.8713 22.1331C63.3445 21.9521 63.7237 21.9356 64.0086 22.0836C64.309 22.1971 64.5497 22.4905 64.7306 22.9638L66.4594 27.4845C66.6404 27.9578 66.6616 28.3493 66.5232 28.6592C66.4001 28.9347 66.102 29.1629 65.6287 29.3439L58.1191 32.2156C57.347 32.5109 56.836 32.8918 56.5862 33.3585C56.3269 33.8003 56.3163 34.3325 56.5544 34.9552L59.9548 43.8472C60.1929 44.4699 60.5559 44.8593 61.0438 45.0153C61.5222 45.1464 62.1475 45.0643 62.9196 44.769L70.4293 41.8973C70.9025 41.7163 71.2816 41.6998 71.5666 41.8478C71.867 41.9613 72.1076 42.2547 72.2886 42.728L73.9888 47.174C74.1698 47.6472 74.191 48.0388 74.0526 48.3487C73.9295 48.6241 73.6314 48.8523 73.1581 49.0333ZM69.6745 46.083L63.4352 48.469C61.1935 49.3262 59.5704 49.5614 58.566 49.1747C57.5616 48.7879 56.7499 47.785 56.1308 46.166L52.1303 35.7048C51.5017 34.0609 51.4449 32.7551 51.9598 31.7873C52.4653 30.7946 53.8139 29.8792 56.0058 29.041L62.2451 26.655L62.1023 26.2814L55.8629 28.6674C53.4718 29.5818 52.0206 30.565 51.5093 31.617C50.998 32.669 51.0805 34.0793 51.7567 35.8477L55.7572 46.3089C56.4144 48.0275 57.2719 49.1128 58.3298 49.5648C59.4126 50.0072 61.162 49.7665 63.578 48.8426L69.8174 46.4566L69.6745 46.083Z" fill="white"/>
<path d="M91.0688 39.9244L91.4619 39.8508L89.5118 29.4317L104.61 26.6059L106.56 37.025L106.953 36.9514L102.979 15.7201L102.586 15.7937L104.536 26.2127L89.4382 29.0386L87.4881 18.6195L87.0949 18.6931L91.0688 39.9244ZM94.9944 42.8522L88.9002 43.9928C88.4022 44.086 88.0156 44.0498 87.7405 43.8843C87.4866 43.6876 87.3131 43.3403 87.2199 42.8423L82.4513 17.3647C82.3581 16.8667 82.3967 16.4932 82.5671 16.2443C82.7589 15.9642 83.1038 15.7776 83.6018 15.6844L89.696 14.5437C90.194 14.4505 90.5699 14.5022 90.8238 14.6989C91.0989 14.8644 91.2831 15.1962 91.3763 15.6942L92.9732 24.2261L99.5392 22.9971L97.9423 14.4653C97.8491 13.9673 97.8877 13.5938 98.0581 13.3449C98.2499 13.0648 98.5948 12.8782 99.0928 12.7849L105.187 11.6443C105.685 11.5511 106.061 11.6028 106.315 11.7995C106.59 11.965 106.774 12.2968 106.867 12.7948L111.636 38.2724C111.729 38.7704 111.68 39.1594 111.488 39.4395C111.318 39.6884 110.983 39.8595 110.485 39.9527L104.391 41.0934C103.893 41.1866 103.507 41.1504 103.231 40.9849C102.978 40.7882 102.804 40.4409 102.711 39.9429L101.077 31.2144L94.5112 32.4434L96.1449 41.1718C96.2381 41.6698 96.1888 42.0589 95.9971 42.3389C95.8266 42.5879 95.4924 42.7589 94.9944 42.8522Z" fill="white"/>
<path d="M127.039 38.5535C126.399 38.5582 125.932 38.4149 125.636 38.1236C125.341 37.8324 125.191 37.3668 125.186 36.7269L125.152 31.967C125.147 31.327 125.29 30.8593 125.582 30.5638C125.873 30.2684 126.339 30.1184 126.978 30.1138L130.538 30.0881L130.447 17.4484L126.887 17.4741C126.247 17.4787 125.78 17.3354 125.484 17.0442C125.189 16.753 125.039 16.2874 125.034 15.6474L124.999 10.8075C124.995 10.1675 125.138 9.69983 125.429 9.40439C125.72 9.10895 126.186 8.95893 126.826 8.95431L143.866 8.83148C144.505 8.82686 144.973 8.97016 145.269 9.26137C145.564 9.55258 145.714 10.0182 145.719 10.6582L145.754 15.498C145.758 16.138 145.615 16.6057 145.324 16.9012C145.033 17.1966 144.567 17.3466 143.927 17.3513L140.447 17.3763L140.538 30.016L144.018 29.9909C144.658 29.9863 145.126 30.1296 145.421 30.4208C145.717 30.712 145.867 31.1776 145.871 31.8176L145.906 36.5775C145.91 37.2175 145.767 37.6852 145.476 37.9806C145.184 38.2761 144.719 38.4261 144.079 38.4307L127.039 38.5535ZM127.036 38.1536L144.076 38.0307C144.583 38.0271 144.942 37.9178 145.154 37.7029C145.392 37.4612 145.509 37.087 145.506 36.5804L145.471 31.8205C145.468 31.3138 145.345 30.9547 145.103 30.7431C144.888 30.5047 144.528 30.3873 144.021 30.3909L140.141 30.4189L140.044 16.9792L143.924 16.9513C144.431 16.9476 144.79 16.8384 145.002 16.6235C145.24 16.3818 145.357 16.0076 145.354 15.5009L145.319 10.661C145.315 10.1544 145.192 9.79527 144.951 9.58367C144.736 9.34521 144.375 9.22781 143.868 9.23146L126.829 9.3543C126.322 9.35796 125.95 9.48064 125.711 9.72237C125.5 9.93723 125.396 10.298 125.399 10.8046L125.434 15.6445C125.438 16.1512 125.547 16.5237 125.762 16.7622C126.004 16.9738 126.378 17.0778 126.884 17.0741L130.844 17.0456L130.941 30.4852L126.981 30.5138C126.475 30.5174 126.102 30.6401 125.864 30.8818C125.652 31.0967 125.548 31.4574 125.552 31.9641L125.586 36.724C125.59 37.2306 125.699 37.6032 125.914 37.8416C126.156 38.0532 126.53 38.1572 127.036 38.1536ZM141.89 34.4464L129.17 34.5381L129.168 34.1381L135.367 34.0934L135.217 13.2939L129.018 13.3386L129.015 12.9386L141.734 12.8469L141.737 13.2469L135.617 13.2911L135.767 34.0905L141.887 34.0464L141.89 34.4464Z" fill="white"/>
<path d="M176.07 25.7418C175.597 25.6569 175.275 25.4906 175.103 25.2429C174.93 24.9952 174.682 24.49 174.359 23.7274L170.872 15.5416C170.762 15.2508 170.608 15.0472 170.413 14.9307C170.222 14.788 170.021 14.6978 169.811 14.66L169.142 14.5397C168.801 14.4784 168.519 14.5362 168.298 14.7132C168.107 14.8686 167.974 15.1563 167.899 15.5762L164.297 35.6152L164.691 35.686L168.292 15.647C168.33 15.437 168.403 15.2604 168.51 15.117C168.621 14.9475 168.809 14.8863 169.071 14.9334L169.662 15.0396C169.845 15.0726 169.998 15.1271 170.12 15.2032C170.268 15.284 170.397 15.4698 170.507 15.7605L174.009 23.8677C174.354 24.6612 174.621 25.2105 174.81 25.5154C175.025 25.825 175.421 26.0317 175.999 26.1355C176.576 26.2393 177.007 26.1811 177.29 25.9611C177.6 25.7458 178.054 25.3263 178.654 24.7026L184.759 18.3218C184.964 18.0877 185.136 17.9561 185.277 17.9272C185.418 17.8983 185.58 17.9004 185.764 17.9334L186.354 18.0395C186.617 18.0867 186.771 18.2092 186.816 18.4071C186.893 18.5834 186.913 18.7766 186.875 18.9865L183.273 39.0255L183.667 39.0963L187.268 19.0573C187.344 18.6374 187.306 18.319 187.156 18.1023C187.036 17.864 186.792 17.7118 186.425 17.6458L185.756 17.5255C185.546 17.4878 185.326 17.5026 185.097 17.5698C184.899 17.6155 184.698 17.7555 184.494 17.9896L178.375 24.4491C177.806 25.0513 177.397 25.4386 177.15 25.6108C176.902 25.783 176.542 25.8267 176.07 25.7418ZM166.771 39.7174L160.905 38.6632C160.406 38.5735 160.058 38.4025 159.859 38.1501C159.692 37.8761 159.653 37.4898 159.742 36.9912L164.327 11.4799C164.417 10.9812 164.585 10.6457 164.833 10.4735C165.112 10.2797 165.5 10.2277 165.999 10.3173L172.338 11.4564C172.757 11.5319 173.082 11.6851 173.312 11.9159C173.567 12.1516 173.776 12.5006 173.936 12.9629L176.326 20.0169C176.415 20.2767 176.489 20.4662 176.549 20.5853C176.635 20.7092 176.757 20.7853 176.915 20.8136L177.269 20.8772C177.426 20.9055 177.554 20.8743 177.652 20.7834C177.775 20.6973 177.924 20.5479 178.098 20.3353L182.755 14.5478C183.067 14.1703 183.37 13.9133 183.666 13.7768C183.987 13.6449 184.358 13.6167 184.778 13.6922L191.156 14.8384C191.655 14.928 191.988 15.1098 192.155 15.3838C192.354 15.6362 192.408 16.0117 192.319 16.5104L187.734 42.0217C187.644 42.5204 187.46 42.8666 187.181 43.0604C186.934 43.2326 186.56 43.2739 186.062 43.1843L179.999 42.0947C179.5 42.0051 179.152 41.834 178.953 41.5816C178.786 41.3077 178.747 40.9214 178.836 40.4227L181.327 26.5647L178.233 30.4385C177.916 30.8422 177.569 31.1184 177.19 31.2671C176.842 31.3942 176.419 31.413 175.92 31.3233L174.345 31.0403C173.846 30.9507 173.443 30.7834 173.135 30.5383C172.858 30.2718 172.641 29.8941 172.485 29.4055L170.933 24.6968L168.443 38.5548C168.353 39.0535 168.169 39.3997 167.89 39.5935C167.643 39.7657 167.27 39.807 166.771 39.7174Z" fill="white"/>
<path d="M213.24 51.9051L201.434 47.3903C200.961 47.2093 200.65 46.9763 200.502 46.6913C200.389 46.391 200.423 46.0042 200.604 45.5309L202.275 41.1596C202.456 40.6864 202.684 40.3882 202.96 40.2652C203.27 40.1267 203.661 40.148 204.134 40.329L214.185 44.1723C214.508 44.2961 214.783 44.2869 215.009 44.1448C215.269 43.9873 215.456 43.7591 215.57 43.4602C215.732 43.0368 215.764 42.6921 215.666 42.4262C215.593 42.1698 215.399 41.9672 215.085 41.8185L209.781 38.8908C208.132 37.975 206.944 36.864 206.216 35.5577C205.513 34.261 205.561 32.5665 206.361 30.4743L207.861 26.5513C208.671 24.4342 209.975 23.0771 211.774 22.4802C213.582 21.8583 215.694 22.0093 218.11 22.9332L228.571 26.9336C229.044 27.1146 229.338 27.3553 229.451 27.6556C229.599 27.9406 229.583 28.3197 229.402 28.793L227.701 33.239C227.521 33.7122 227.275 34.0181 226.965 34.1565C226.69 34.2796 226.315 34.2506 225.842 34.0697L217.137 30.7407C216.813 30.6169 216.521 30.6337 216.261 30.7912C216.011 30.9238 215.823 31.152 215.7 31.4758C215.576 31.7996 215.558 32.1069 215.647 32.3978C215.735 32.6886 215.937 32.9084 216.251 33.0571L221.532 35.9332C223.18 36.849 224.369 37.96 225.097 39.2663C225.825 40.5725 225.789 42.2717 224.989 44.364L223.489 48.2869C222.679 50.4041 221.358 51.7688 219.525 52.3812C217.726 52.9781 215.632 52.8194 213.24 51.9051ZM225.268 29.5246L216.973 26.3529C215.828 25.9147 214.782 25.8861 213.837 26.267C212.902 26.623 212.243 27.2992 211.862 28.2955L210.691 31.3591C210.3 32.3803 210.228 33.1664 210.474 33.7173C210.755 34.2528 211.195 34.7067 211.795 35.0789L219.064 39.7C219.704 40.1162 220.138 40.6246 220.365 41.2253C220.626 41.8107 220.533 42.6887 220.086 43.8594L219.257 46.0263C218.876 47.0226 218.213 47.7112 217.268 48.0921C216.357 48.4576 215.329 48.4213 214.183 47.9832L204.88 44.4257L204.738 44.7993L214.041 48.3568C215.311 48.8426 216.453 48.8796 217.467 48.4679C218.49 48.0314 219.212 47.2651 219.631 46.1692L220.459 44.0022C220.955 42.707 221.048 41.7151 220.741 41.0265C220.458 40.3473 219.972 39.7902 219.282 39.355L212.013 34.7338C211.478 34.4151 211.103 34.0147 210.887 33.5327C210.672 33.0506 210.731 32.3737 211.064 31.502L212.236 28.4383C212.569 27.5666 213.157 26.9633 213.999 26.6286C214.84 26.2938 215.784 26.3264 216.831 26.7265L225.125 29.8983L225.268 29.5246Z" fill="white"/>
<path d="M242.228 51.7257C242.6 51.1093 242.991 50.5661 243.399 50.0962C243.83 49.64 244.263 49.2318 244.699 48.8717L250.28 44.5784C250.853 44.1454 251.394 43.8176 251.902 43.5948C252.424 43.3493 253.027 43.4332 253.712 43.8466L257.068 45.8723C257.707 46.2582 258.04 46.7392 258.066 47.3155C258.106 47.869 258.072 48.5183 257.965 49.2635L256.958 56.2717C256.843 56.8248 256.672 57.3914 256.446 57.9716C256.243 58.5656 255.956 59.1708 255.584 59.7873L254.943 60.8489L241.588 52.7873L242.228 51.7257ZM251.986 47.9443L247.235 52.178L252.611 55.4233L254.144 49.2465C254.176 48.9859 254.163 48.7755 254.104 48.6153C254.068 48.4689 253.982 48.3543 253.845 48.2716L252.988 47.7549C252.851 47.6722 252.698 47.642 252.529 47.6645C252.383 47.7007 252.202 47.7939 251.986 47.9443ZM251.181 67.0815L251.524 67.2882L255.926 59.994C256.312 59.3547 256.607 58.7381 256.809 58.1441C257.049 57.5411 257.229 56.9333 257.349 56.3208L258.356 49.3126C258.481 48.4851 258.515 47.7581 258.457 47.1314C258.422 46.5184 258.028 45.9846 257.275 45.5299L253.919 43.5041C253.143 43.0356 252.464 42.9218 251.882 43.1626C251.301 43.4035 250.692 43.7677 250.055 44.2554L244.473 48.5486C243.987 48.9407 243.522 49.3762 243.077 49.8552C242.669 50.3252 242.272 50.8798 241.886 51.519L237.483 58.8132L237.825 59.0199L241.381 53.1298L254.736 61.1913L251.181 67.0815ZM240.237 62.9982C239.975 63.432 239.679 63.6896 239.35 63.7711C239.057 63.8435 238.693 63.7487 238.26 63.4869L233.226 60.4483C232.792 60.1865 232.527 59.9023 232.432 59.5956C232.373 59.2799 232.475 58.9052 232.737 58.4714L238.194 49.4307C238.607 48.7458 239.185 48.0201 239.928 47.2538C240.694 46.5012 241.664 45.6692 242.837 44.7576L250.508 38.7823C250.88 38.4769 251.257 38.3155 251.641 38.2983C252.048 38.2948 252.48 38.4308 252.937 38.7064L262.149 44.2668C262.583 44.5286 262.881 44.8336 263.045 45.1816C263.232 45.5433 263.276 45.9596 263.179 46.4304L261.466 56.0024C261.206 57.4652 260.91 58.7038 260.578 59.7182C260.269 60.7463 259.908 61.6029 259.494 62.2878L254.037 71.3285C253.775 71.7623 253.48 72.0199 253.15 72.1013C252.857 72.1737 252.494 72.079 252.06 71.8172L246.889 68.6959C246.433 68.4203 246.145 68.1223 246.027 67.8018C245.946 67.4723 246.036 67.0907 246.298 66.6569L249.192 61.8626L243.13 58.2039L240.237 62.9982Z" fill="white"/>
</svg>
